<svg xmlns="http://www.w3.org/2000/svg" width="2000" height="530"><path fill="#ECE0FE" d="M82.531 9.156c10.179 7.602 17.28 18.836 20.008 31.309.632 4.85.604 9.633.599 14.52l.009 3.361c.008 3.72.01 7.439.01 11.158l.016 7.998c.012 5.744.02 11.488.026 17.232.01 9.09.031 18.181.053 27.272l.023 9.34.005 2.359a77808.708 77808.708 0 0 1 .063 29.014c.026 13.094.045 26.187.061 39.281.018 13.463.047 26.925.085 40.387.024 8.292.038 16.583.04 24.875.002 5.693.015 11.385.036 17.077.012 3.277.018 6.553.013 9.83-.029 26.715 3.723 49.647 21.422 70.831l1.578 2.02c13.764 16.937 35.989 26.054 57.152 28.668 22.617 2.161 45.742-4.762 63.708-18.625 7.053-6.08 13.267-13.038 19.559-19.886 2.485-2.7 4.992-5.38 7.502-8.057a2832.463 2832.463 0 0 0 15.963-17.207c4.421-4.796 8.873-9.562 13.327-14.327A2363.97 2363.97 0 0 0 315 305.5a2992.256 2992.256 0 0 1 14.79-15.914c4.24-4.54 8.46-9.1 12.669-13.67 3.85-4.176 7.724-8.33 11.603-12.478 4.17-4.46 8.32-8.933 12.438-13.438a1850.214 1850.214 0 0 1 14.238-15.363A2261.98 2261.98 0 0 0 392 222.5a2973.627 2973.627 0 0 1 14.791-15.916c4.217-4.514 8.41-9.048 12.593-13.593 4.714-5.113 9.478-10.177 14.245-15.24a482.157 482.157 0 0 0 10.308-11.314C472.298 134.881 517.323 117.602 559 115c57.045-1.918 106.978 11.481 149.59 50.784 35.43 33.262 58.447 81.543 60.585 130.192.308 10.378.275 20.764.26 31.145-.002 3.603.004 7.207.01 10.81.014 8.504.013 17.007.001 25.51-.011 8.732.003 17.464.03 26.196.022 7.548.028 15.096.022 22.644-.003 4.487 0 8.973.017 13.46.015 4.212.011 8.423-.008 12.635-.003 1.534 0 3.069.01 4.603.106 16.647-4.078 30.713-15.478 43.142-12.389 11.416-26.687 14.588-42.974 14.015C697.962 499.272 686.83 492.32 678 483c-7.344-8.818-12.105-18.71-12.145-30.264l-.02-3.904-.009-4.277a6159.562 6159.562 0 0 1-.056-14.225 7926.76 7926.76 0 0 0-.065-15.4c-.07-14.598-.13-29.197-.182-43.795-.028-8.062-.064-16.124-.106-24.186-.027-5.09-.045-10.178-.056-15.267-.01-3.189-.027-6.377-.047-9.566a925.14 925.14 0 0 1-.012-4.389C665.288 291.78 659.77 267.672 642 248l-2.012-2.293C625.162 229.785 602.625 220.13 581 219c-23.089-.722-43.592 5.951-60.487 21.763l-3.055 2.88c-2.13 1.982-4.33 3.882-6.52 5.794-5.195 4.665-9.838 9.769-14.49 14.959-2.498 2.768-5.038 5.495-7.573 8.229a1214.11 1214.11 0 0 0-12.605 13.855c-3.926 4.358-7.899 8.673-11.867 12.992-1.377 1.5-2.751 3-4.126 4.5a4156.735 4156.735 0 0 1-29.065 31.441A2359.53 2359.53 0 0 0 420 347.5a2992.256 2992.256 0 0 1-14.79 15.914A2363.97 2363.97 0 0 0 394 375.5a2992.256 2992.256 0 0 1-14.79 15.914A2363.97 2363.97 0 0 0 368 403.5a2636.237 2636.237 0 0 1-13 14 3229.96 3229.96 0 0 0-13.188 14.188l-1.482 1.6a486.103 486.103 0 0 0-7.135 7.872C327.293 447.8 321.104 453.631 314 459l-3.066 2.355c-41.978 31.534-95.39 46.464-147.5 39.123C145.796 497.696 129.1 492.702 113 485l-2.39-1.14C93.39 475.502 78.26 464.71 64 452l-1.606-1.419C27.506 419.666 4.212 374.563 0 328c-.144-3.93-.144-7.858-.14-11.79l-.01-3.551c-.007-3.235-.01-6.47-.01-9.705-.002-3.495-.01-6.991-.016-10.487-.014-7.634-.02-15.268-.024-22.902l-.012-14.31c-.012-13.219-.022-26.437-.026-39.654v-2.56a488023601.092 488023601.092 0 0 1-.002-7.715v-2.58c-.005-13.795-.022-27.59-.046-41.386-.023-14.177-.036-28.355-.037-42.532 0-7.955-.007-15.91-.025-23.864-.015-6.772-.02-13.544-.012-20.316.004-3.452.003-6.904-.011-10.357-.013-3.749-.007-7.498.004-11.247l-.025-3.279c.09-13.819 4.978-25.432 14.454-35.515C32.995-3.78 61.139-5.352 82.532 9.156Z"/><path fill="#512594" d="M82.531 9.156c10.179 7.602 17.28 18.836 20.008 31.309.632 4.85.604 9.633.599 14.52l.009 3.361c.008 3.72.01 7.439.01 11.158l.016 7.998c.012 5.744.02 11.488.026 17.232.01 9.09.031 18.181.053 27.272l.023 9.34.005 2.359a77808.708 77808.708 0 0 1 .063 29.014c.026 13.094.045 26.187.061 39.281.018 13.463.047 26.925.085 40.387.024 8.292.038 16.583.04 24.875.002 5.693.015 11.385.036 17.077.012 3.277.018 6.553.013 9.83-.029 26.715 3.723 49.647 21.422 70.831l1.578 2.02c13.764 16.937 35.989 26.054 57.152 28.668 19.007 1.816 37.478-2.754 53.793-12.43L240 382l2 1c-16.939 12.868-35.373 22.867-55 31l-2.269.964c-14.398 6.051-29.42 9.165-44.731 12.036l-2.873.56c-3.743.527-7.437.621-11.209.643l-2.34.017c-1.635.01-3.27.016-4.905.02-2.44.01-4.88.04-7.32.072-27.172.183-52.137-7.829-75.562-21.297-1.747-.99-3.525-1.923-5.303-2.855C14.246 394.633 9.518 373.186 5 356c-3.173-13.254-5.151-26.152-5.14-39.79l-.01-3.551c-.007-3.235-.01-6.47-.01-9.705-.002-3.495-.01-6.991-.016-10.487-.014-7.634-.02-15.268-.024-22.902l-.012-14.31c-.012-13.219-.022-26.437-.026-39.654v-2.56a488023601.092 488023601.092 0 0 1-.002-7.715v-2.58c-.005-13.795-.022-27.59-.046-41.386-.023-14.177-.036-28.355-.037-42.532 0-7.955-.007-15.91-.025-23.864-.015-6.772-.02-13.544-.012-20.316.004-3.452.003-6.904-.011-10.357-.013-3.749-.007-7.498.004-11.247l-.025-3.279c.09-13.819 4.978-25.432 14.454-35.515C32.995-3.78 61.139-5.352 82.532 9.156Zm567.594 175.532 2.198.007c30.861.163 60.612 8.98 85.948 27.072a110.57 110.57 0 0 0 3.944 2.673c6.564 4.558 9.195 9.297 11.972 16.685l1.263 3.216c11.768 30.63 14.185 60.815 14.087 93.287-.01 4.511 0 9.023.006 13.534.007 7.552-.002 15.104-.022 22.656-.021 8.696-.014 17.39.008 26.086.018 7.527.02 15.054.01 22.58-.006 4.47-.007 8.94.006 13.41.012 4.19.004 8.382-.02 12.573-.005 1.527-.003 3.053.006 4.58.088 16.614-4.116 30.67-15.492 43.074-12.389 11.416-26.687 14.588-42.974 14.015C697.962 499.272 686.83 492.32 678 483c-7.344-8.818-12.105-18.71-12.145-30.264l-.02-3.904-.009-4.277a6159.562 6159.562 0 0 1-.056-14.225 7926.76 7926.76 0 0 0-.065-15.4c-.07-14.598-.13-29.197-.182-43.795-.028-8.062-.064-16.124-.106-24.186-.027-5.09-.045-10.178-.056-15.267-.01-3.189-.027-6.377-.047-9.566a925.14 925.14 0 0 1-.012-4.389C665.288 291.78 659.77 267.672 642 248l-2.012-2.293C625.162 229.785 602.625 220.13 581 219a96.3 96.3 0 0 0-18.063 1.125l-2.46.378c-6.521 1.11-12.487 3.044-18.577 5.603-1.615.677-3.256 1.291-4.9 1.894l-2-1c32.386-25.511 73.618-42.54 115.125-42.313Z"/><path fill="#512594" d="M462 320c4.075 1.578 6.542 4.5 9.375 7.688l3.21 3.542 1.691 1.873c2.875 3.164 5.801 6.278 8.724 9.397 4.449 4.76 8.89 9.528 13.313 14.313l1.5 1.616a253.911 253.911 0 0 1 6.511 7.286c15.732 18.33 37.874 28.01 61.676 30.285 22.052 1.582 45.096-6.26 61.938-20.438 7.471-6.524 13.663-13.508 18.933-21.91L650 352h1l.011 3.796c.037 11.87.095 23.741.173 35.612.04 6.1.071 12.202.087 18.303.015 5.9.05 11.8.097 17.701.015 2.239.023 4.477.024 6.715-.112 21.189-.112 21.189 6.305 41.146C659 478 659 478 658 481a80.24 80.24 0 0 1-7.563 3.75l-2.398 1.05C632.42 492.39 615.786 496.73 599 499l-1.918.281C547.692 505.791 496.687 491.723 457 462c-9.765-7.502-19.097-15.553-27.148-24.883-3.084-3.525-6.316-6.907-9.54-10.305a6014.467 6014.467 0 0 1-4.226-4.476l-2.09-2.216a1144.772 1144.772 0 0 1-11.418-12.308 350.466 350.466 0 0 0-4.906-5.25l-1.985-2.125-1.675-1.753C393 397 393 397 393.043 395.082c1.337-2.91 3.263-4.632 5.582-6.832 3.731-3.56 7.154-7.244 10.527-11.144 3.087-3.518 6.315-6.9 9.536-10.293a1703.216 1703.216 0 0 0 15.867-16.993c3.855-4.19 7.741-8.35 11.632-12.507A931.197 931.197 0 0 0 462 320ZM318 164l2.336 1.965c3.23 2.728 6.163 5.514 8.91 8.73 3.701 4.275 7.55 8.391 11.442 12.493a2005.453 2005.453 0 0 1 18.824 20.194c2.742 2.98 5.49 5.955 8.238 8.93l3.047 3.301L373 222c-2.607 4.135-5.265 7.468-8.813 10.875-3.653 3.52-7.016 7.184-10.333 11.015-3.09 3.517-6.319 6.901-9.541 10.298a1687.493 1687.493 0 0 0-15.863 16.987 1610.14 1610.14 0 0 1-9.914 10.664c-5.28 5.636-10.515 11.29-15.536 17.161-4.935-4.052-9.38-8.355-13.688-13.063l-1.833-1.984c-1.83-1.981-3.655-3.967-5.479-5.953a8584.15 8584.15 0 0 0-4.552-4.93l-2.895-3.141a1408.852 1408.852 0 0 0-8.201-8.827l-1.88-2.006c-1.19-1.271-2.383-2.54-3.577-3.809-2.732-2.913-5.386-5.854-7.942-8.924C238.22 229.062 214.94 221.001 193 219c-21.646-1.652-44.534 6.634-61 20.5-4.296 3.722-8.2 7.677-11.73 12.137L119 253h-2V128c24.237-8.08 24.237-8.08 34.188-9.875l3.072-.602C213.294 106.272 273.336 124.688 318 164Z"/><path fill="#D3CFFB" d="M935 49c106.039 0 106.039 0 122.219 15.02 11.081 12.32 12.518 26.667 11.956 42.459-.676 9.74-5.309 17.008-11.175 24.521a1959.92 1959.92 0 0 0-3 4l1.941 1.398c11.071 8.349 17.964 18.725 20.059 32.602 1.05 16.709-.648 32.28-11.273 45.918-4.988 5.43-10.078 9.24-16.602 12.582l-1.851.952c-13.173 6.21-26.668 5.956-40.887 5.841-1.834-.004-3.667-.008-5.5-.01-6.734-.015-13.467-.057-20.2-.095L935 234V49Zm30 26v47c7.793.115 15.583.215 23.376.275 2.648.025 5.296.059 7.944.102 3.818.061 7.635.09 11.453.111l3.556.078c8.406.003 15.263-1.534 21.61-7.339 5.456-5.816 6.5-11.678 6.3-19.485-.537-6.167-2.295-10.193-6.739-14.555-8.171-6.38-17.961-6.623-27.95-6.48l-3.45.013c-3.596.017-7.191.054-10.788.093-2.455.015-4.91.028-7.365.04-5.983.03-11.964.09-17.947.147Zm0 74v58l28.875.25 9.058.11c2.395.012 4.79.022 7.184.03l3.706.063c10.53.004 18.724-2.216 26.486-9.523 5.458-6.228 7.055-13.366 6.894-21.473-.761-9.208-4.403-15.288-11.203-21.457-8.367-6.549-18.792-6.286-28.91-6.195l-3.25.006c-3.967.01-7.935.038-11.903.064L965 149Zm782 194c6.273 5.546 6.273 5.546 8 9h2c1.53-1.59 1.53-1.59 3.125-3.625 7.747-9.001 16.843-13.543 28.438-16.188L1792 332l2.629-.152c14.524-.474 26.901 3.59 38.121 12.84 9.348 8.83 14.942 20.361 15.595 33.217.167 5.861.106 11.72.046 17.583a4002.26 4002.26 0 0 0-.018 6.469c-.015 5.634-.054 11.267-.098 16.901-.041 5.765-.06 11.53-.08 17.296A9636.172 9636.172 0 0 1 1848 470h-29l-.028-7.812c-.034-8.55-.09-17.099-.156-25.648-.04-5.18-.072-10.36-.087-15.54-.015-5.006-.05-10.01-.097-15.017a781.019 781.019 0 0 1-.024-5.708c.046-18.311.046-18.311-8.901-33.841-6.349-5.332-13.553-6.969-21.707-6.434-8.329 1.483-14.124 4.994-19.313 11.695-4.377 6.92-4.983 15.059-5.006 23.038l-.03 2.486c-.03 2.679-.048 5.357-.065 8.035-.019 1.87-.038 3.74-.059 5.611-.05 4.897-.09 9.795-.128 14.692-.04 5.008-.091 10.015-.141 15.023-.097 9.807-.18 19.613-.258 29.42h-29l-.028-7.812c-.034-8.55-.09-17.099-.156-25.648-.04-5.18-.072-10.36-.087-15.54-.015-5.006-.05-10.01-.097-15.017a781.019 781.019 0 0 1-.024-5.708c.046-18.311.046-18.311-8.901-33.841-6.349-5.332-13.553-6.969-21.707-6.434-7.55 1.345-12.953 4.182-18 10-7.45 10.687-6.333 24.505-6.414 36.914a4972.69 4972.69 0 0 0-.187 19.785c-.04 4.88-.091 9.76-.141 14.64-.097 9.554-.18 19.108-.258 28.661h-29V335h28l1 13 4-5c19.07-14.716 46-15.175 65 0Zm-760.398-58.114a782 782 0 0 1 4.808.016l2.552.005c2.7.005 5.4.018 8.1.03A6387.782 6387.782 0 0 1 1021 285l.707 2.028c12.2 34.978 24.429 69.945 36.74 104.884 2.72 7.723 5.438 15.447 8.153 23.172l4.575 13.013 2.492 7.09a38510.674 38510.674 0 0 0 4.468 12.712l.968 2.752.932 2.652a423.782 423.782 0 0 0 2.095 5.718l1.112 2.978 1.02 2.688C1085 467 1085 467 1085 470h-32c-5.631-13.515-5.631-13.515-7.457-19.008l-1.182-3.547-1.173-3.57-1.233-3.688C1039 431.267 1039 431.267 1039 429l-74 1-14 40h-33c2.02-6.733 4.104-13.378 6.414-20.008l.99-2.853c1.07-3.09 2.146-6.177 3.221-9.264l2.292-6.594a7625.382 7625.382 0 0 1 16.361-46.488c7.699-21.676 15.295-43.387 22.884-65.102 1.59-4.55 3.183-9.1 4.775-13.65.994-2.843 1.983-5.686 2.972-8.53l1.642-4.702.728-2.107c1.99-5.679 1.99-5.679 6.323-5.816ZM1001 321a25193.655 25193.655 0 0 0-15.96 45.758 6126.492 6126.492 0 0 0-5.19 14.964c-.524 1.515-1.05 3.03-1.577 4.545a1799.97 1799.97 0 0 0-2.175 6.295l-1.234 3.567c-1.008 2.85-1.008 2.85-.864 5.871h56a13265.647 13265.647 0 0 0-12.993-38.97 6174.07 6174.07 0 0 0-6.13-18.244c-.669-1.985-1.335-3.97-1.999-5.956-.934-2.794-1.877-5.584-2.823-8.373l-.848-2.555c-1.126-4.208-1.126-4.208-4.207-6.902Zm683-212c12.725 10.469 20.524 25.791 23 42 .24 3.818.236 7.613.188 11.438l-.002 3.005c-.045 7.275-.045 7.275-1.186 9.557h-100c3.599 13.557 3.599 13.557 11 24l1.809 1.887c7.716 7.406 16.107 9.748 26.664 10.207 10.922-.29 19.471-3.922 27.082-11.707 2.2-2.423 4.346-4.876 6.445-7.387 5.456 1.607 10.33 4.05 15.375 6.625l2.52 1.273A1941.14 1941.14 0 0 1 1703 203c-3.757 12.393-13.765 21.317-24.832 27.46-17.34 8.425-39.71 9.757-58.055 3.794-17.869-7.197-30.398-19.513-38.64-36.785-8.263-19.463-7.838-42.683-.035-62.215 4.075-8.945 9.624-15.472 16.562-22.254l1.7-1.797C1622 89.43 1660.078 92.474 1684 109Zm-68 23c-4.558 5.455-9 12.652-9 20h69c-1.213-10.916-3.923-16.772-11.813-24.273-14.644-11.56-35.405-8.36-48.187 4.273Zm-269.562 213.25c8.197 7.863 13.51 18.332 13.923 29.749.008 1.772 0 3.544-.02 5.316v2.96c-.001 3.192-.024 6.384-.048 9.577a4669.691 4669.691 0 0 1-.087 24.191c-.03 5.966-.044 11.932-.06 17.898-.032 11.687-.084 23.373-.146 35.059h-28l-1-12-4.25 3.688c-14.308 11.45-31.149 12.585-48.75 11.312-11-1.545-21.514-7.162-28.531-15.785-6.264-9.446-7.594-20.209-6.043-31.246 2.171-10.338 7.72-19.067 16.574-24.969 14.857-8.946 31.985-11.045 48.813-13.75l5.814-.957C1328.621 384 1328.621 384 1331 384c-.194-8.617-2.189-14.189-8.313-20.313-8.587-5.392-17.339-5.92-27.273-4.253-8.359 2.36-14.54 7.65-18.976 15.003A182.961 182.961 0 0 0 1274 379c-8.796-3.146-16.837-7.516-25-12 3.524-12.018 12.356-20.497 22.918-26.719 23.378-12.34 53.398-11.928 74.52 4.969Zm-27.133 63.922-2.265.375c-1.583.263-3.164.53-4.746.797-2.388.4-4.778.786-7.169 1.172-15.343 2.317-15.343 2.317-28.125 10.484-3.173 5.212-4.477 9.526-3.313 15.563 2.133 5.585 4.97 8.766 10.313 11.437 8.419 2.693 18.359 1.77 26.402-1.617 9.96-5.302 15.696-12.39 19.973-22.695.942-5.557.777-11.067.625-16.688-4.013 0-7.755.516-11.695 1.172Zm277.133-63.234c1.21.994 2.396 2.016 3.562 3.062l2.191 1.914c12.698 11.817 20.34 28.35 21.047 45.703.443 20.833-3.787 38.778-17.879 54.926-13.136 13.68-30.224 21.355-49.093 21.805-20.105.171-37.624-4.088-52.378-18.348a272.227 272.227 0 0 1-3.888-4l-1.86-1.906c-13.772-15.05-17.084-34.104-16.292-53.796 1.213-18.307 9.667-33.694 22.746-46.236 26.126-22.393 64.309-22.644 91.843-3.125Zm-74.876 27.937c-7.796 10.555-10.899 22.564-9.25 35.594 1.992 11.523 7.416 22.186 16.688 29.531 11.04 6.454 22.392 9.365 35.063 6.246 10.905-4.24 20.327-12.203 25.171-22.996 4.982-13.285 5.388-26.516-.3-39.727-5.336-10.247-12.817-17.527-23.739-21.558-16.33-4.863-32.556-.254-43.632 12.91ZM1861 335h31c3.143 7.544 6.243 15.076 9.188 22.695.38.98.76 1.96 1.15 2.97a161814.164 161814.164 0 0 0 6.196 16.005A10090.946 10090.946 0 0 1 1929 430c1.681-2.522 2.665-4.475 3.717-7.264l.998-2.626 1.074-2.864 1.14-3.009c1.235-3.265 2.466-6.532 3.696-9.8.85-2.249 1.7-4.498 2.552-6.747 1.746-4.613 3.49-9.227 5.233-13.842a10085.52 10085.52 0 0 1 10.72-28.2l4.044-10.61L1966 335h32c-1.887 5.662-3.793 11.231-5.965 16.777l-.9 2.314a6087.984 6087.984 0 0 1-3.072 7.846l-1.1 2.81c-9.04 23.064-18.238 46.067-27.43 69.071a20303.422 20303.422 0 0 1-9.498 23.777c-.726 1.815-1.452 3.63-2.176 5.447-3.453 8.653-6.941 17.288-10.636 25.841l-.83 1.945c-2.455 5.61-5.58 10.406-9.393 15.172l-1.61 2.137c-7.666 9.583-18.437 14.88-30.39 16.863-2.351.143-4.707.22-7.063.25l-3.66.078C1880 525 1880 525 1868 522v-26l7 1c2.834.204 5.659.23 8.5.25l2.184.063c5.201.037 8.648-1.025 13.316-3.313l3-1c1.09-1.858 1.09-1.858 2-4a236.71 236.71 0 0 1 2.375-3.625c4.216-6.725 7.309-12.405 5.625-20.375a126.825 126.825 0 0 0-2.319-6.187l-1.476-3.684-1.62-3.988-1.691-4.212c-1.206-3-2.414-5.997-3.626-8.994-1.901-4.703-3.794-9.41-5.685-14.118l-1.921-4.782-.966-2.403-2.924-7.272a10591.947 10591.947 0 0 1-17.508-43.8c-1.008-2.538-2.019-5.076-3.03-7.614a7329.494 7329.494 0 0 1-4.187-10.524l-1.255-3.14-1.125-2.842-.982-2.469C1861 337 1861 337 1861 335Zm-656.75 9.188c9.877 9.229 15.27 22.503 15.84 35.916.032 2.38.034 4.757.024 7.136v2.722c0 2.95-.008 5.898-.016 8.847a11969.811 11969.811 0 0 1-.029 22.32c-.01 5.503-.015 11.006-.02 16.51-.01 10.787-.028 21.574-.049 32.361h-29l-.044-7.429c-.05-8.138-.117-16.277-.192-24.415-.044-4.93-.084-9.86-.11-14.79a2854.15 2854.15 0 0 0-.117-14.296c-.017-1.81-.028-3.62-.035-5.43.215-18.636.215-18.636-7.772-34.956-6.1-5.936-12.713-8.22-21.105-8.997-8.214.709-15.944 3.085-21.625 9.313-5.675 8.903-7.124 16.878-7.205 27.322l-.03 2.427a3150.65 3150.65 0 0 0-.081 7.872l-.063 5.485c-.055 4.796-.105 9.591-.153 14.387-.05 4.9-.106 9.8-.161 14.7-.108 9.603-.209 19.205-.307 28.807h-29V335h28l1 13 3.25-3.625c18.53-18.464 49.632-15.66 69-.188ZM1100 99h29l.06 7.46c.067 8.163.145 16.325.228 24.487.05 4.946.096 9.892.134 14.837.037 4.779.083 9.558.136 14.336.019 1.817.034 3.634.045 5.451-.196 18.736-.196 18.736 7.397 35.429 7.537 7.257 15.044 8.461 25.293 8.32 7.202-.622 12.392-3.511 17.707-8.32 1.828-2.788 1.828-2.788 3.25-5.875l1.516-3.055c2.29-5.698 2.394-11.387 2.44-17.462l.03-2.485c.03-2.695.056-5.39.08-8.084l.063-5.624c.055-4.922.105-9.844.153-14.766.05-5.028.106-10.055.161-15.083.108-9.855.209-19.71.307-29.566h29v135h-28l-1-12-3.188 3.625c-9.28 9.33-20.77 11.6-33.374 11.688-8.473.012-15.721-.496-23.438-4.313l-2.621-1.25c-12.214-6.544-18.809-17.183-23.152-30.04-2.13-7.743-2.377-15.83-2.34-23.81l-.001-2.605c0-2.808.008-5.616.016-8.424l.005-5.88c.003-5.134.013-10.268.024-15.402.01-5.25.015-10.498.02-15.747.01-10.28.028-20.561.049-30.842Zm434.836 8.023c9.27 8.467 16.33 18.387 17.345 31.27.063 2.54.067 5.071.046 7.611v2.9a2061 2061 0 0 1-.032 9.415l-.008 6.557a7045.54 7045.54 0 0 1-.05 17.202c-.02 5.86-.03 11.718-.04 17.577-.02 11.482-.056 22.963-.097 34.445h-29l-.028-7.92c-.034-8.66-.09-17.322-.156-25.983-.04-5.248-.072-10.497-.087-15.745-.015-5.07-.05-10.14-.097-15.211a801.526 801.526 0 0 1-.024-5.786c.172-17.6.172-17.6-8.608-32.355-7.566-5.634-15.013-7.512-24.398-6.824-7.978 1.385-14.326 5.592-19.04 12.136-4.412 6.6-4.859 14.697-4.88 22.42l-.031 2.487c-.03 2.679-.048 5.357-.065 8.035-.019 1.87-.038 3.74-.059 5.611-.05 4.897-.09 9.795-.128 14.692-.04 5.008-.091 10.015-.141 15.023-.097 9.807-.18 19.613-.258 29.42h-29V99h28l1 13 4-5c18.863-14.556 47.092-15.541 65.836.023Zm412.18 2.372c6.662 6.333 12.296 13.441 13.984 22.605a1513.6 1513.6 0 0 1-10.313 5.063l-2.958 1.47-2.842 1.377-2.619 1.286C1940 142 1940 142 1937 141c-1.29-2.074-1.29-2.074-2.625-4.688-3.202-5.548-6.75-8.378-12.375-11.312l-1.863-1.027c-6.818-3.169-15.557-3.266-22.711-1.246-4.162 1.892-6.667 3.928-8.426 8.273-1.17 3.844-1.078 5.734.063 9.625 4.03 7.022 10.832 8.555 18.187 10.75l5.91 1.836a2489.4 2489.4 0 0 0 8.445 2.579c14.453 4.412 27.931 9.673 35.739 23.608 4.594 9.879 5.258 20.875 1.691 31.227-4.911 11.269-13.048 17.71-23.812 23.113-8.11 3.175-15.884 3.6-24.535 3.575l-3.186.048c-16.494.01-31.628-5.747-43.502-17.361-4.889-5.794-9.115-11.975-12-19 1-3 1-3 2.794-4.183a653.112 653.112 0 0 1 7.518-3.567l2.631-1.285 2.545-1.2 2.33-1.1c2.536-.773 3.747-.67 6.182.335 1.535 2.223 1.535 2.223 3.063 5.063 4.733 7.81 12.048 13.705 20.847 16.476 9.06 1.998 17.18 2.098 25.465-2.351 3.385-2.821 5.284-4.878 5.941-9.333.19-3.694-.024-6.243-1.629-9.605-8.436-7.063-20.186-9.347-30.569-12.227-14.53-4.057-27.11-8.61-35.723-21.449-3.494-6.448-4.931-12.117-4.832-19.449l.022-2.392c.306-10.84 4.629-18.583 11.97-26.385 20.254-19.043 55.905-15.275 76.46 1.047Zm-126.778.152c6.328 5.925 10.675 12.338 13.762 20.453v2a1513.6 1513.6 0 0 1-10.313 5.063l-2.958 1.47-2.842 1.377-2.619 1.286C1813 142 1813 142 1810 141c-1.324-2.074-1.324-2.074-2.688-4.688-4.152-7.159-9.705-11.528-17.69-13.84-7.783-1.403-16.177-1.899-23.138 2.325-2.997 2.43-4.105 5.066-5.296 8.64-.25 3.404.39 5.46 1.812 8.563 3.297 3.76 5.956 5.744 10.688 7.313l3.68 1.238c3.66 1.162 7.336 2.266 11.015 3.367l3.45 1.04a711.6 711.6 0 0 0 6.84 2.012c12.034 3.579 23.357 9.112 30.257 20.104 5.138 9.995 6.882 20.056 3.945 31.113-4.314 12.52-13.137 19.77-24.652 25.551-8.11 3.175-15.884 3.6-24.535 3.575l-3.186.048c-17.25.01-32.163-6.275-44.502-18.361-4.552-5.457-8.243-11.453-11-18 1-3 1-3 2.794-4.183a653.112 653.112 0 0 1 7.518-3.567l2.631-1.285 2.545-1.2 2.33-1.1c2.531-.771 3.745-.644 6.182.335 1.527 1.89 1.527 1.89 2.938 4.25 5.55 8.738 12.896 14.836 22.937 17.688 8.164 1.745 16.098 1.517 23.465-2.72 3.453-2.534 5.314-5.18 6.035-9.429.202-3.809-.064-6.205-1.875-9.601-7.912-6.924-19.047-8.879-28.935-11.683-14.464-4.122-28.956-8.569-37.194-22.2-5.118-10.004-6.08-20.824-3.57-31.809 4.546-11.982 12.527-18.818 23.77-24.121 20.772-8.328 46.223-5.236 63.667 9.172Zm-485 0c6.328 5.925 10.675 12.338 13.762 20.453v2a1513.6 1513.6 0 0 1-10.313 5.063l-2.958 1.47-2.842 1.377-2.619 1.286C1328 142 1328 142 1325 141c-1.324-2.074-1.324-2.074-2.688-4.688-4.152-7.159-9.705-11.528-17.69-13.84-7.783-1.403-16.177-1.899-23.138 2.325-2.977 2.413-4.086 5.039-5.296 8.578-.269 3.755.325 6.155 1.812 9.625 5.351 4.543 10.636 6.487 17.313 8.438l5.882 1.808c1.935.586 3.87 1.17 5.805 1.754 15.3 4.622 30.021 9.544 38.344 24.398 4.594 9.879 5.258 20.875 1.691 31.227-4.911 11.269-13.048 17.71-23.812 23.113-8.11 3.175-15.884 3.6-24.535 3.575l-3.186.048c-17.25.01-32.163-6.275-44.502-18.361-4.552-5.457-8.243-11.453-11-18 1-3 1-3 2.794-4.183a653.112 653.112 0 0 1 7.518-3.567l2.631-1.285 2.545-1.2 2.33-1.1c2.531-.771 3.745-.644 6.182.335 1.527 1.89 1.527 1.89 2.938 4.25 5.55 8.738 12.896 14.836 22.937 17.688 8.164 1.745 16.098 1.517 23.465-2.72 3.453-2.534 5.314-5.18 6.035-9.429.202-3.809-.064-6.205-1.875-9.601-7.912-6.924-19.047-8.879-28.935-11.683-14.464-4.122-28.956-8.569-37.194-22.2-5.118-10.004-6.08-20.824-3.57-31.809 4.546-11.982 12.527-18.818 23.77-24.121 20.772-8.328 46.223-5.236 63.667 9.172ZM1403 304h29v31h31v27h-31c.091 11.689.091 11.689.209 23.377.054 4.773.105 9.546.137 14.319.027 3.851.067 7.702.117 11.554.017 1.463.028 2.927.035 4.39-.298 12.709-.298 12.709 4.812 23.932 5.689 5.17 11.782 5.724 19.065 5.553l2.23-.027c1.799-.024 3.597-.06 5.395-.098.029 4.146.047 8.292.063 12.438l.025 3.587.01 3.409.016 3.158C1464 470 1464 470 1463 471c-16.899 2.982-31.286.781-45.883-8.152-7.857-5.78-11.825-16.272-13.644-25.53-.51-3.583-.593-6.99-.587-10.609v-2.13c0-2.305.008-4.61.016-6.915l.005-4.817c.003-4.212.013-8.424.024-12.635.01-4.304.015-8.608.02-12.911.01-8.434.028-16.867.049-25.301h-24v-27l13-2c4.546-2.074 7.138-4.639 9.254-9.23 1.726-6.406 1.54-13.186 1.746-19.77Zm-28-205h29v135h-29V99Zm0-50h29v33h-29V49Z"/><path fill="#592F99" d="m240 382 2 1-10 7v-3c1.68-1.422 1.68-1.422 3.875-2.75l2.18-1.36L240 382Z"/></svg>